<?xml version="1.0" encoding="UTF-8"?><svg id="b" xmlns="http://www.w3.org/2000/svg" viewBox="0 0 92.32 92.32"><g id="c"><path d="M46.16,0C20.666,0,0,20.666,0,46.16s20.666,46.16,46.16,46.16,46.16-20.666,46.16-46.16S71.654,0,46.16,0ZM70.267,65.048c-.576.624-1.492,1.099-2.417,1.341-2.513.657-5.481-.024-7.818-1.053-7.452-3.278-5.807-11.583-2.538-17.31.981-1.72,1.949-3.451,2.924-5.192.767-1.37,2.426-3.679,1.775-5.355-.681-1.757-2.504-1.768-3.701-.287-1.152,1.426-2.123,3.47-2.918,5.129-.865,1.807-5.184,11.299-5.184,11.299-.799,1.547-2.143,3.769-3.602,4.997-1.089.917-3.077,1.186-4.385.236-.993-.723-1.189-1.683-.994-2.8.9-5.159,8.727-17.166,3.328-18.011-2.068-.324-2.63,1.978-3.268,3.447-1.055,2.427-1.858,4.954-2.986,7.354-1.297,2.753-2.289,5.622-2.971,8.583-.543,2.365-1.247,5.379-3.94,6.1-7.372,1.972-9.612-2.896-9.612-2.896-1.203-3.829-.062-7.273,1.098-10.956.896-2.845,1.43-5.778,2.564-8.546,2.023-4.935,4.039-15.231,11.332-14.573,1.861.167,3.943,1.108,5.551,2.046,1.463.854,2.574,1.309,4.276.39,1.656-.894,2.413-2.553,4.387-3.122,2.114-.609,3.505.292,5.087,1.564,2.216,1.782,2.457.977,4.286.509,1.517-.389,3.277-.568,4.939-.284,8.554,1.465,3.106,12.385,1.065,16.773-1.328,2.854-7.667,14.334-2.051,15.877,1.694.465,3.878.253,5.289,1.468,1.435,1.232,1.293,2.399.484,3.272Z" style="fill:#ed1c40;"/></g></svg>