<?xml version="1.0" encoding="UTF-8"?><svg id="b" xmlns="http://www.w3.org/2000/svg" viewBox="0 0 92.32 92.32"><g id="c"><path d="M49.301,38.275c-4.122-1.816-9.202.339-10.959,4.406-1.147,2.655-1.159,5.322-.222,7.52,1.176,2.759,3.846,4.778,7.641,5.111,4.358.381,8.094-2.707,9.098-6.879.937-3.9-1.967-8.575-5.558-10.158Z" style="fill:#d162d1;"/><path d="M55.341,24.121c-6.976-.245-13.946.074-20.925.262-8.965.24-10.741,10.399-10.552,18.273.031,1.296.004,2.622-.041,3.962-.205,6.23-.035,17.19,5.884,20.403,2.433,1.322,5.357,1.365,8.05,1.265,3.237-.122,6.448-.133,9.685.032,4.521.23,8.993.408,13.45-.652,6.181-1.472,7.244-4.539,7.682-10.039.19-2.402-.003-5.297.017-8.271.041-6.48,1.473-17.928-4.149-22.767-2.464-2.118-6.003-2.357-9.101-2.468ZM53.542,58.23c-7.378,5.284-18.253.948-20.759-7.492-.17-.571-.302-1.16-.391-1.768-.638-4.336,1.161-11.344,5.461-14.014,8.578-5.327,15.702-1.42,18.755,2.219,1.643,1.96,2.86,4.731,3.282,7.282.868,5.255-2.142,10.759-6.348,13.773ZM61.432,35.46c-1.916.587-4.787-1.447-3.419-4.853.719-1.788,2.524-2.271,4.674-1.113,1.69.911,1.951,4.986-1.255,5.966Z" style="fill:#d162d1;"/><path d="M46.16,0C20.666,0,0,20.666,0,46.16s20.666,46.16,46.16,46.16,46.16-20.666,46.16-46.16S71.654,0,46.16,0ZM73.237,46.332c.072,3.494-.145,6.985-.048,10.483.176,6.334-2.109,12.44-8.504,14.942-7.756,3.034-17.212,1.365-25.343,1.365-3.521,0-7.14.281-10.519-.721-2.585-.768-4.252-2.23-6.043-4.236-.806-.902-1.332-1.806-1.763-2.91-2.081-5.339-1.681-10.24-1.912-15.858-.133-3.21-.074-6.427-.044-9.641.042-4.392.011-8.321,1.627-12.479,1.632-4.202,7.229-7.515,11.569-7.8,8.901-.582,18.275-1.355,27.123.067,3.489.561,7.165,1.709,9.673,4.317,3.268,3.396,4.065,8.248,4.214,13.125.1,3.245-.088,6.5-.03,9.346Z" style="fill:#d162d1;"/></g></svg>