<?xml version="1.0" encoding="UTF-8"?><svg id="b" xmlns="http://www.w3.org/2000/svg" viewBox="0 0 2557.1893 541.8813" preserveAspectRatio="none"><g id="c"><path fill="#b39e7f" d="m2123.0948,541.7872c-706.1666,0-1412.3333-.0035-2118.5.0927-3.749.0005-4.5991-.8431-4.5948-4.5928.1187-101.8332.0947-203.6665.0947-305.4999,3.6933.4946,2.6868,3.758,3.2,5.8709,2.0801,8.5656,3.8023,17.2177,5.8104,25.8018.5462,2.335.7075,5.9368,3.4955,5.9848,2.8276.0487,5.4764-2.3358,7.0797-4.9155,1.0206-1.6422,1.5085-3.7,1.8878-5.6394.8619-4.4066,1.604-8.8419,2.2252-13.2892,1.4651-10.4899,5.4803-19.7568,12.9615-27.3656,3.7015-3.7646,5.5096-3.4423,7.5434,1.5318,3.0819,7.5374,6.3431,15.0291,7.2877,23.2626.1945,1.6949.1932,4.1491,2.4791,4.3853,3.1234.3227,4.5045,2.6728,6.2795,4.5293,3.4991,3.6598,3.0475,10.8908,10.228,11.2839.3315.0181.605.7518.9392,1.1217,2.2451,2.4856,2.4314,7.6452,7.9427,6.0294.4141-.1214,1.5825,1.5628,2.0566,2.5696,1.0598,2.2503,1.8369,4.6322,2.8516,6.9058,1.1064,2.479,2.8353,5.64,5.4379,5.0737,3.9285-.8549,5.8455.8503,7.7699,3.9279,1.5899-1.7802,1.7396-3.5776,2.2559-5.294,3.3033-10.983,6.7058-21.9365,10.1223-32.8851,5.1483-16.4981,11.8169-32.4439,17.7514-48.6564,4.3242-11.8135,5.2349-24.3721,7.9124-36.5411,3.5765-16.2543,10.8089-31.4104,13.5705-47.837.6944-4.1305,4.5867-6.3254,6.9652-6.3931,4.8734-.1387,6.3436-2.6302,7.5266-6.2527,3.2504-9.9528,6.6275-19.8687,8.8381-30.1288.4247-1.9715.9905-4.5853,2.9552-4.8984,4.2369-.6752,4.8046-4.045,6.3249-6.8905.791-1.4806,1.4223-4.4384,3.5137-3.2069,2.3777,1.4001,4.5254.2558,6.7182.7726,2.5043.5902,2.6687,3.5656,5.0954,4.8506,1.932-5.0039,3.6393-9.6728,5.5376-14.2627,1.4581-3.5254,4.3233-5.5708,7.8845-3.8528,2.8536,1.3766,3.4857.2346,4.2697-1.8474,2.4614-6.5366,4.8876-13.0868,7.4126-19.5987.4493-1.1589.7737-2.8621,2.4832-2.7046,1.5683.1444,2.0291,1.7216,2.2836,2.9757,1.0594,5.2211,1.9857,10.4697,2.93,15.7137,3.954,21.9584,9.0516,43.568,15.4384,65.024,8.8142,29.6106,15.431,59.8773,28.2222,88.2047,1.0626,2.3532,1.2872,5.1045,3.2567,7.4379.6204-.6977,1.1856-1.095,1.424-1.6362,6.2223-14.1285,12.5351-28.2191,18.5635-42.4302,4.4137-10.4047,5.0204-22.1747,11.1548-31.9776,4.3377-6.9317,9.8144-13.0909,13.6566-20.3901,1.3388-2.5433,3.1217-1.1382,4.0369.7728,2.0165,4.2106,5.2864,7.9014,9.0306,9.7463,6.387,3.1471,11.3705,7.2859,15.1464,13.1398.5458.8461.9717,1.4195,2.334,1.1133,5.1017-1.1467,10.7513,1.8085,13.2197,6.1774,2.889,5.1136,4.8748,10.6107,6.705,17.5141,2.3097-3.642,3.5003-6.0527,5.1783-8.0551,3.5679-4.2577,3.294,2.3974,5.4574,2.2023,4.2604-8.4914,6.0848-17.6779,9.0538-26.4766.7763-2.3008.4319-6.2936,2.7967-6.4235,2.6981-.1483,4.6511,3.2133,6.3443,5.5769.9403,1.3127,1.2168,3.0848,1.9008,4.601,1.0242,2.2704,1.6788,4.9328,3.3027,6.6686,7.2644,7.7648,12.8039,16.5221,16.5604,26.4516.5188,1.3713,1.0186,3.5479,2.4334,3.5658,6.5259.0825,5.85,5.214,6.7191,9.1606,1.2894,5.8551,2.1138,11.8235,4.4086,17.4164.7487,1.8248,1.484,3.5405,3.8436,1.2257,4.778-4.6875,5.1469-4.6099,9.7931-.0113,3.8736,3.8339,7.7141,3.001,9.1047-2.2369,1.792-6.75,3.6256-13.5304,4.7336-20.4116,2.0633-12.8143,4.0478-25.5866,9.4577-37.5594,2.0823-4.6083,4.1859-9.7102,8.5057-11.9373,3.2345-1.6676,4.9727-3.1995,5.7363-6.5128.3406-1.478.9392-3.8557,3.2537-2.2166,3.1459,2.228,3.6893.1805,4.22-2.1541,2.7508-12.1003,10.1637-21.9788,15.6512-32.771.6495-1.2774,1.8641-2.3295,2.9865-3.287,1.1155-.9515,2.8198-2.3464,3.9489-.9388,3.9708,4.9503,10.2253,7.128,14.1914,11.8746,2.7802,3.3273,3.7655,2.1766,4.8859-.9369.843-2.3428,1.3242-4.981,2.7407-6.9231,5.4982-7.5382,8.4137-16.1864,11.5502-24.7998,2.2684-6.2296,4.0964-12.2227,10.4019-16.7621,4.9211-3.5428,9.1425-3.6541,14.2273-3.4929,3.6937.1171,4.4023,4.2148,6.6865,5.1057,2.4238.9454,4.1727-4.5102,7.9609-3.1613,3.8781,1.3809,8.7551-.0351,11.6114,4.2735.7205,1.0868,2.1113,1.4883,2.9005.1285,2.1437-3.6938,4.3298-2.0308,7.0245-.6306,2.5275,1.3134,5.2964,4.9347,7.9808,2.802,4.2759-3.397,5.5174-.6941,7.5836,2.124,3.7363,5.0961,10.966,6.5545,16.3625,3.2721,2.1901-1.332,3.4177-.7425,4.4129,1.1857,1.6459,3.1889,3.1407,3.0384,5.5671.4841,2.9304-3.0849,6.2947-4.4379,9.2525.3841.7146,1.1652,1.8887,3.0399,3.5359,1.7663,3.5729-2.7625,3.7194.3234,4.544,2.3607,2.2952,5.6708,5.5316,10.3362,11.3707,13.1174,7.1178,3.3904,12.1761,8.8983,15.339,16.2825,3.929,9.1726,7.9695,18.3009,15.0203,25.7367,2.2222,2.3435,3.7672,2.8325,6.1508.5664,2.2932-2.1802,4.9522-3.3952,8.1594-1.8596,1.567.7502,3.2606.19,4.7585.3806,3.6448.4639,7.1912,3.3173,10.7549-.3584.1178-.1216,1.6577.9,2.3234,1.592,1.6122,1.676,3.1137,3.4601,4.6333,5.2234,1.5154,1.7584,2.8578,3.9989,5.4792,3.8853,2.708-.1174,4.2721,1.4023,5.9896,3.0269,4.2136,3.986,5.0775,3.6873,6.4864-2.0956.2363-.9699.415-1.9555.5814-2.9404,3.4728-20.5498,8.4936-40.7547,13.5898-60.9422.3953-1.5658.4168-3.7976,2.3484-4.0227,2.4116-.281,2.5424,2.2411,3.1694,3.8254,4.9659,12.5483,9.8765,25.1187,14.7686,37.696,2.1086,5.4211,11.5476,9.9279,16.9818,7.7089,3.3022-1.3484,5.0778-.4129,6.1729,2.669,1.2833,3.6111,2.4993,7.2465,3.8144,10.8458.4932,1.3499.4814,3.4346,2.2156,3.581,2.2119.1867,2.2408-2.1337,2.7228-3.5909,1.5688-4.7416,2.9135-9.5574,4.4849-14.2981.4503-1.3585,1.004-3.0553,2.8781-3.0359,1.8292.0189,2.4074,1.6562,2.921,3.0247.9355,2.4924,1.4619,5.1555,2.5562,7.5672,1.7291,3.8105,4.6122,6.9315,9.0587,6.0556,5.7115-1.1251,11.0926-4.4304,17.1953-1.7954.4073.1758,1.0103.0447,1.4794-.0914,5.9603-1.7296,12.448,3.63,18.1593-1.3523,3.8164,2.4797,7.3984.0521,10.9961-.6759,2.4861-.5031,4.9953-1.1393,7.4049-.5524,6.2604,1.525,12.5377,1.0193,18.8354.713,5.7551-.2798,11.5975-1.8655,17.1039,1.3906,1.294.7652,2.5024-.6636,3.7219-.8085,4.8275-.5736,9.7339-3.1714,14.3935-1.5173,2.9359,1.0422,5.4379,1.8176,8.5153,1.3388,3.4535-.5373,6.9181-.3256,10.4256.3166,5.813,1.0644,11.149.7277,14.6138-5.4467,1.5899-2.8332,4.2534-5.0847,5.9041-8.0078,1.6755-2.967,4.134-3.6951,7.2025-2.2827,1.6559.7622,3.2524,1.6524,4.8996,2.4345,6.4278,3.0517,12.6808,7.938,19.8326,1.2794,1.833-1.7067,3.1626-.0036,4.5166,1.4158,5.714,5.9901,8.3456,13.5945,10.5945,21.1915,1.8654,6.3011,7.1415,8.1581,11.8527,10.543,4.9146,2.4877,10.618,2.9329,16.0859,2.5414,5.4142-.3877,10.62,2.5697,15.5112,1.7803,8.5267-1.3762,17.7137.3015,25.6024-4.705.6653-.4223,2.0337-.2341,2.8467.1521,6.6825,3.1737,13.7235,4.6531,21.0769,5.1792,3.2666.2337,6.4824-1.2638,9.8035.3101,7.9344,3.7601,14.0828-3.0163,21.2361-4.1393,2.1647-.3398,4.3149-2.6071,7.0289-3.2159,3.6082-.8094,4.6052,2.5278,7.2538,4.3239.8231-4.1912,1.4967-7.7671,2.2316-11.3305,1.2209-5.9207,2.7687-6.6029,8.1899-3.6427,1.4199.7754,2.8831,2.5217,4.4786,1.2848,3.196-2.4776,7.2177-4.796,8.8625-8.1721,3.0249-6.2088,5.4028-12.8738,6.3453-19.8864.8422-6.2661,1.1598-12.6186,2.868-18.7495,1.0911-3.9157,3.2622-6.0076,7.7153-4.8604,3.0505.7859,6.1937.5974,9.3788.4518,3.189-.1458,5.3718-4.0546,7.5017-3.1125,5.1547,2.2802,8.2191-1.2637,11.6151-3.2087,3.2368-1.8538,4.7998-1.2207,6.3324,1.6763,3.199,6.0463,9.9467,9.3737,12.3521,16.0696.2366.6584,1.1698,1.2324,1.9067,1.5177,4.0176,1.5558,6.6508,4.1809,7.3691,8.5946.2115,1.2995.9508,2.95,2.3519,2.9566,5.1304.0245,6.7594,4,9.2621,7.3103,2.3933,3.1655,5.4005,5.86,7.2272,9.4821.443.8784,1.073,1.8318,2.2299,1.7639,4.3685-.2563,7.0039,4.6606,11.7325,3.7581,1.4321-.2733,2.7161,1.5308,3.8156,2.8843,4.9386,6.0796,5.9232,13.8184,7.7458,20.8452,4.6711,18.01,7.8502,36.4034,11.8173,54.6018,1.3502,6.1939,2.5978,12.4742,5.0844,18.6079,2.4253-1.6347,2.7665-3.7154,3.2491-5.5803,2.962-11.4457,6.6017-22.4831,12.0536-33.175,6.9784-13.6861,11.4672-28.6306,20.6974-41.2231,1.147-1.565,1.7532-4.1079,4.1278-3.7923,2.449.3255,2.3392,3.0031,2.7996,4.8195,1.1649,4.596,1.3652,9.4663,3.9269,13.9172.5748-.5392,1.0494-.794,1.22-1.1825.3988-.908.8667-1.866.9298-2.8285.6215-9.4937,7.0255-15.6694,12.6471-22.3149,1.7307-2.0459,3.4058-3.3092,5.6887-.7294,1.0353,1.17,2.1144,1.6559,3.1514-.0734.856-1.4273.7109-4.2412,3.2114-3.5893,1.9288.5029,1.6605,3.0627,2.2457,4.7375.657,1.8799.9688,3.8781,1.5703,5.7806.4601,1.4553,1.3142,3.3031,2.918,2.9956,6.4524-1.2371,6.1113,3.722,6.7006,7.3448,2.3605,14.5124,8.8464,27.5345,14.5197,42.4884.8827-5.4321,1.6201-9.3408,2.1388-13.2783,1.6362-12.4226,4.3706-24.6027,8.0101-36.579,1.4293-4.7033,2.343-4.9709,5.567-1.9728.7444.6921,1.3834,1.7099,2.444.7983,4.2904-3.6874,5.6747-.0446,7.4009,2.8408,1.0862,1.8155,1.7283,4.3643,4.3641,4.2849,3.0015-.0905,5.6232.9742,8.082,2.257,3.5432,1.8484,4.8599.1813,5.7316-2.8647,1.4655-5.1201,2.8939-10.252,4.4626-15.3405.3711-1.2041.8379-2.9037,2.4039-2.8565,2.062.062,1.7679,2.0673,2.0441,3.4392,2.0043,9.9561,3.9095,19.9328,6.0022,29.8701.4199,1.9944.463,4.3209,3.051,6.1965,2.9258-8.2431,5.0038-16.3579,6.4124-24.6676.8074-4.7631,1.5938-9.5306,2.4954-14.2761.272-1.4309.5446-3.3438,2.2745-3.5214,1.847-.1896,2.1812,1.7626,2.7018,3.111,1.0845,2.8085,2.0654,5.657,3.0889,8.4891,2.0054-4.1955,2.9315-8.2249,3.9326-12.2356.2806-1.124.6853-2.3133,1.9744-2.6904,1.2063-.3529,1.9801.4654,2.2904,1.4189,1.4462,4.443,4.8044,7.9165,5.8817,12.6189,1.9985,8.7243,3.351,9.9196,11.6544,13.0536.6332.239,1.1942,1.1676,1.4258,1.8917,1.6207,5.069,3.7466,10.0702,4.5977,15.2751,3.6715,22.454,10.71,43.8975,18.743,65.0724.2083.5487.5428,1.0494,1.4099,2.6945,1.2936-7.8783,2.4104-14.5545,3.4833-21.2377,3.1956-19.9064,6.0294-39.8896,12.6462-59.0627.6495-1.8819,1.1509-3.8373,2.7896-5.2112,3.5035-2.9374,5.2843-6.9475,6.0591-11.2402,5.6897-31.5246,16.8083-61.6177,24.324-92.6588,1.2516-5.1694,3.0491-10.21,4.6748-15.2843.8602-2.6852,1.8032-5.6362,4.3832-.9633.4995.9045,1.5924,1.906,2.3157.7476,2.4619-3.9426,4.359-3.0807,6.3953.3017.5469.9081,1.7054.783,2.7313.8358,7.7192.3975,14.6565,1.6291,18.0199,10.3336,1.4285,3.6972,5.0382,6.5444,6.4357,10.5769.2382.6869,1.1545,1.7093,1.6449,1.6498,4.8512-.5889,4.9729,3.3286,6.264,6.2454,3.0317,6.849,5.9122,13.9221,15.0438,14.4253,2.0452.1127,2.8895,1.5799,3.4027,3.1842,1.4364,4.491,5.1641,6.273,9.1478,6.6171,4.4147.3814,6.4341,2.7832,8.0977,6.2903,4.5828,9.6613,7.1405,20.0718,11.1691,29.9261,2.2037,5.3905,3.306,10.7455,10.2533,13.9973,5.6465,2.6429,10.5525,5.9416,17.1144,7.1284,5.9128,1.0694,11.1029,1.6884,16.3846-1.3247,1.4794-.844,2.9717-.5704,4.2501.3309,2.8635,2.0192,5.4395,1.3466,7.6271-.9033,3.4054-3.5021,6.4984-4.3435,9.8931.0533.8788,1.1382,2.6011,2.7125,3.9261.1147,2.0682-4.0548,3.8093-6.5663,9.7791-7.2916,5.0132-.6091,6.129.9867,6.8519,3.7807,3.222,12.4537,14.0917,20.6705,17.7701,32.8043.4067,1.3416,1.6187,2.0534,2.811,2.7094,1.5482.8517,2.688,2.2795,2.9484,3.8842,1.384,8.5297,7.9016,14.4539,10.9609,22.0614,1.7858,4.4409,5.8817,7.2029,7.3634,11.7239,1.6071,4.9031,3.1545,9.8424,5.1023,14.6131,2.8693,7.0281,7.2893,13.0813,12.6317,18.4633.744.7496,1.774,1.5136,2.6344.994,4.6321-2.7978,9.787-.7744,14.6812-1.7151,7.121-1.3688,14.5396-1.1114,21.7915-1.9089,3.7639-.4139,7.7041.7558,11.2753-.9347,4.9413-2.3391,10.5782.6101,15.4653-2.2075.4863-.2804,1.963.5267,2.5669,1.1998,1.7579,1.9595,2.9331,1.6074,4.1893-.5009,1.7634-2.9592,4.7434-2.816,7.5654-2.45,2.9478.3824,3.1949,3.1045,3.7937,5.2891.6141,2.241.9584,4.5588,1.369,6.8522,1.7019,9.5078,3.5667,18.9918,4.9919,28.5412.6497,4.3524,4.1832,4.5184,6.8833,5.1299,2.9174.6606,3.5775-2.4716,4.1702-4.6522,1.2657-4.6578,2.3269-9.3727,3.4093-14.0786,1.4182-6.1669,2.7347-12.2419,7.0481-17.3741,2.5906-3.0824,3.8964-3.1916,5.4252.4247.7117,1.6833,1.4619,3.3695,1.9585,5.1213,2.0427,7.2065,3.944,14.453,6.0044,21.6543.8453,2.9544,1.5649,6.0222,3.5342,8.398,1.5406-.4683,1.687-1.5516,2.1711-2.3933,2.8534-4.9603,4.5204-4.9164,7.6575-.2029,2.9025,4.3606,4.6663,9.079,6.1514,14.0923,5.7445,19.3908,8.2885,39.4079,12.1138,59.1763,4.459,23.0429,11.2498,45.5865,14.8975,68.8073,1.8337,11.6736,3.5784,23.3611,5.4028,35.0361.1934,1.2382-.2395,3.1108,1.3975,3.4031,1.8599.332,2.3247-1.6378,2.9216-2.9129.915-1.9539,1.5142-4.0528,2.3342-6.0547.5598-1.3663,2.05-2.7291,2.8523-1.0771,1.7534,3.6093,3.4292,6.7315,8.0923,6.6561.3948-.0064.9446.9275,1.1887,1.5208,4.2219,10.2562,11.5591,19.1213,13.4475,30.4442.3889,2.3327,1.7285,4.5069,2.6917,6.9079,1.9236-.7199,2.0996-3.4839,4.0474-3.0259,3.6721.8633,6.7896-.6443,10.1226-1.6212,3.032-.8886,5.1567.2607,5.5728,3.7776.4104,3.4675.9202,6.9308,1.5688,10.3614,2.9561,15.6298,4.0706,31.744,12.4661,45.9371,1.4802,2.5024,2.5547,5.4404,2.1455,8.5789Z"/><path fill="#b39e7f" d="m2125.0948,541.7872c1.2263-8.2913.9878-16.7931,6.3389-24.2273,3.1853-4.4256,3.2017-10.4366,4.8357-15.6707,7.4084-23.7284,12.0142-48.0701,16.1216-72.5248,2.4558-14.622,4.8494-29.2546,7.2385-43.8878.7393-4.5275,2.1128-8.781,5.3335-12.1732,4.4268-4.663,4.3235-10.6301,4.7808-16.3847.6875-8.6538,1.5532-17.2578,4.3372-25.5435.4001-1.1906.2974-3.0569,1.9746-3.0697,1.7869-.0136,1.4678,1.9477,1.8306,3.0933.9395,2.9674.1401,6.3099,2.4939,10.5711.6748-7.9681,5.6968-13.0099,6.7554-19.5364.8235-5.0771,2.6436-10.6284,5.613-13.6275,11.0344-11.1452,12.8276-26.5417,19.938-39.3965,3.8074-6.8835,2.6738-14.9755,3.8381-22.509,4.8574-31.4342,7.7222-63.1246,12.3813-94.5965,5.803-39.1988,10.4727-78.5641,15.9417-117.8144,1.3984-10.0382,3.8662-19.9355,6.075-29.8459.4365-1.9594.3508-5.1282,3.9832-4.5813,3.3601.5059,7.1807.1207,7.9749,4.995,1.1787,7.2329,2.1382,14.5489,4.0103,21.6124,4.9436,18.6521,6.7185,37.875,10.6331,56.7192,2.8022,13.489,2.6223,27.6049,5.5193,41.0652,5.189,24.1098,9.1804,48.3846,12.6731,72.7641,2.3845,16.6452,4.0793,33.4,7.5232,49.8751,1.4287,6.8355,3.5225,13.5333,5.3635,20.2801.3486,1.2781.7473,2.6099,1.4487,3.709,1.1287,1.7684,1.9158,4.5507,4.27,4.439,2.6392-.1252,2.4868-3.1726,3.1848-5.0898,1.1216-3.0811,1.1355-6.5774,3.9114-8.9893,3.436-2.9856,5.2363-2.6874,7.207,1.4648,1.8999,4.0037,1.6509,8.4685,2.635,12.672.4507,1.926.7534,3.8867,1.9519,5.9053,1.4573-7.8065,3.0769-15.5868,4.3386-23.4248,2.8311-17.5852,6.1079-35.0822,9.5642-52.5549,2.9373-14.8472,5.2588-29.8154,8.0759-44.6878.3809-2.0112-.1345-5.6566,2.8552-5.5801,2.7524.0704,2.5251,3.6008,2.905,5.7102,3.3342,18.5148,11.2979,35.7933,14.1877,54.4597,1.7527,11.3218,3.1582,22.7653,6.5076,33.7942.5066,1.6672.0947,4.5213,2.052,4.6696,1.8555.1405,3.9646-1.3066,5.3354-3.1088,3.8467-5.0579,3.9016-5.0767,7.4165.4931,1.6553,2.6228,3.1069,5.374,4.8774,8.4625,1.7981-2.5199,2.8706-4.9574,4.9131-6.7027,2.2625-1.9331,4.0955-1.6323,5.0903.991,4.2744,11.2732,12.532,20.7653,14.6873,32.9922.271,1.5383.4072,3.7742,2.2666,4.0985,1.7686.3084,1.7869-2.0822,2.8132-3.0582,2.3538-2.2383,3.3691-5.3172,5.136-7.8972,1.5032-2.1953,2.656-5.9789,6.8269-3.4913,1.4783.8815,1.6201-.4576,1.7021-1.4187,1.3132-15.3879,7.7258-29.6213,10.1284-44.7623.2078-1.3102.5979-2.5953.9609-3.8758.3208-1.131.697-2.355,2.0544-2.563,1.666-.2552,2.2239,1.1152,2.9043,2.2677.845,1.4318.5718,4.1906,3.2388,3.5965,2.2244-.4955,1.8613-2.9284,2.2515-4.6182.4473-1.9371.7271-3.9441.7998-5.9309.2236-6.1042,3.749-11.0801,5.4512-16.5707,4.9033-15.8146,12.3091-30.9489,13.9595-47.7233.1772-1.801.5876-3.7888,2.061-4.993,2.9827-2.4375,3.6941-5.8109,4.3086-9.2758.7302-4.116,1.7253-8.1409,3.6824-11.8801,1.1868-2.2667,2.196-4.4295,5.564-3.7762,2.7637.536,2.6465-2.1483,2.9038-3.717,1.0784-6.5659,1.9331-13.1689,2.8364-19.763,1.0188-7.4366,4.4363-13.8296,8.6707-19.8433,2.0049-2.8476,3.7856-2.444,4.814.7861.8069,2.535,1.6243,5.1143,1.981,7.736,1.1746,8.6365,6.4822,15.5382,9.6128,23.347,1.1389,2.8416,5.1584,2.7608,7.4263.139,1.0042-1.1608,1.1851-3.5636,3.4548-2.8389,1.9871.6343,2.1919,2.7855,2.7412,4.4923,4.4077,13.6928,6.4065,27.8984,8.9016,41.9988.4924,2.7835,1.0806,5.55,1.6245,8.3244,0,123.8333-.0195,247.6667.0945,371.4999.0034,3.7496-.845,4.5971-4.5945,4.5942-142.5-.1112-285-.0941-427.5-.0941Z"/></g></svg>